<svg xmlns="http://www.w3.org/2000/svg" viewBox="1.41 2.95 144.69 38.36">
    <g transform="translate(6 6) scale(0.13)">
      <path fill="#000" d="M239.18 102.71a64.28 64.28 0 0 0-5.52-52.78 65 65 0 0 0-70-31.18A64.97 64.97 0 0 0 49.18 41.05a64.28 64.28 0 0 0-42.92 31.18 65 65 0 0 0 7.97 76.36 64.27 64.27 0 0 0 5.51 52.78 65 65 0 0 0 70 31.18 64.27 64.27 0 0 0 48.45 21.67 65 65 0 0 0 61.94-44.95 64.28 64.28 0 0 0 42.92-31.18 65 65 0 0 0-7.97-76.36zM152.92 232.7a48.18 48.18 0 0 1-30.95-11.19l1.52-.87 51.36-29.65a8.34 8.34 0 0 0 4.21-7.32V120.32l21.73 12.56a.78.78 0 0 1 .42.6v59.99c-.07 26.6-21.7 48.16-48.29 48.23zm-103.7-44.3a48.18 48.18 0 0 1-5.77-32.37l1.52.91 51.4 29.66a8.36 8.36 0 0 0 8.43 0l62.74-36.22v25.1a.78.78 0 0 1-.3.66l-51.95 30a48.28 48.28 0 0 1-65.98-17.74h-.09zM35.7 84.92a48.04 48.04 0 0 1 25.12-21.13l-.07 1.78v59.31a8.32 8.32 0 0 0 4.18 7.27l62.59 36.13-21.74 12.55a.85.85 0 0 1-.78 0l-51.93-30A48.27 48.27 0 0 1 35.7 85h-.04l.04-.08zm178.32 41.5l-62.74-36.46 21.69-12.51a.85.85 0 0 1 .78 0l51.93 30a48.27 48.27 0 0 1-7.31 87.05V133.6a8.36 8.36 0 0 0-4.35-7.18zm21.61-32.5l-1.51-.94L182.88 63a8.42 8.42 0 0 0-8.43 0l-62.7 36.22V74.13a.86.86 0 0 1 .3-.69l51.94-29.97a48.25 48.25 0 0 1 71.65 49.99v.46zm-135.96 44.7L77.92 126.05a.78.78 0 0 1-.43-.61V65.5a48.26 48.26 0 0 1 79.1-37.06l-1.5.87-51.39 29.65a8.34 8.34 0 0 0-4.2 7.31v72.5zm11.83-25.43l27.92-16.12 27.96 16.12V148.5l-27.96 16.13L111.45 148.51v-32.32z"></path>
    </g>
    <text x="56" y="22" dominant-baseline="central" font-family="system-ui, -apple-system, Helvetica, sans-serif" font-weight="700" font-size="22" fill="#000" letter-spacing="-0.5">OpenAI</text>
  </svg>